<svg xmlns="http://www.w3.org/2000/svg" width="18" height="18" viewBox="0 0 18 18">
  <defs>
    <style>
      .cls-1 {
        fill: #f7f7f7;
        fill-rule: evenodd;
      }
    </style>
  </defs>
  <path id="insta" class="cls-1" d="M251.373,740.33A4.618,4.618,0,1,0,256,744.948a4.621,4.621,0,0,0-4.624-4.618h0Zm0,7.618a3,3,0,1,1,3-3,3,3,0,0,1-3,3h0Zm4.807-8.865a1.077,1.077,0,1,1-1.078,1.077A1.078,1.078,0,0,1,256.18,739.083Zm3.728-.019a4.6,4.6,0,0,0-2.632-2.628,6.592,6.592,0,0,0-2.187-.42c-0.962-.043-1.267-0.055-3.71-0.055s-2.753,0-3.709.055a6.592,6.592,0,0,0-2.187.42,4.6,4.6,0,0,0-2.632,2.628,6.58,6.58,0,0,0-.42,2.185c-0.043.961-.055,1.265-0.055,3.7s0,2.751.055,3.706a6.579,6.579,0,0,0,.42,2.184,4.6,4.6,0,0,0,2.632,2.629,6.606,6.606,0,0,0,2.187.45c0.962,0.043,1.267.055,3.709,0.055s2.754,0,3.71-.055a6.592,6.592,0,0,0,2.187-.42,4.6,4.6,0,0,0,2.632-2.628,6.585,6.585,0,0,0,.42-2.185c0.043-.961.055-1.265,0.055-3.705s0-2.751-.055-3.706A6.6,6.6,0,0,0,259.908,739.064Zm-1.218,9.523a5,5,0,0,1-.311,1.685,2.982,2.982,0,0,1-1.712,1.71,4.979,4.979,0,0,1-1.669.31c-0.95.043-1.218,0.055-3.655,0.055s-2.687,0-3.655-.055a4.979,4.979,0,0,1-1.669-.31,2.976,2.976,0,0,1-1.718-1.71,4.973,4.973,0,0,1-.311-1.667c-0.042-.949-0.055-1.217-0.055-3.651s0-2.683.055-3.65a4.954,4.954,0,0,1,.311-1.686,2.978,2.978,0,0,1,1.718-1.71,4.979,4.979,0,0,1,1.669-.31c0.95-.043,1.218-0.055,3.655-0.055s2.686,0,3.655.055a4.979,4.979,0,0,1,1.669.31,2.982,2.982,0,0,1,1.712,1.71,5,5,0,0,1,.311,1.667c0.042,0.949.054,1.217,0.054,3.651s0,2.695-.042,3.651H258.69Z" transform="translate(-242.375 -735.969)"/>
</svg>
