<svg xmlns="http://www.w3.org/2000/svg" width="20.656" height="20.594" viewBox="0 0 20.656 20.594">
  <defs>
    <style>
      .cls-1 {
        fill: #fff;
        fill-rule: evenodd;
      }
    </style>
  </defs>
  <path id="Spotify" class="cls-1" d="M303.982,734.642a10.309,10.309,0,1,0,10.33,10.309A10.32,10.32,0,0,0,303.982,734.642Zm4.738,14.869a0.645,0.645,0,0,1-.886.214c-2.425-1.479-5.479-1.814-9.075-.994a0.642,0.642,0,1,1-.286-1.252c3.935-.9,7.31-0.512,10.033,1.149A0.641,0.641,0,0,1,308.72,749.511Zm1.264-2.807a0.807,0.807,0,0,1-1.108.265,13.588,13.588,0,0,0-10.294-1.2,0.8,0.8,0,1,1-.468-1.537,15.1,15.1,0,0,1,11.605,1.369A0.8,0.8,0,0,1,309.984,746.7Zm0.109-2.923c-3.33-1.973-8.823-2.155-12-1.192a0.964,0.964,0,1,1-.561-1.845c3.649-1.105,9.715-.892,13.548,1.379A0.965,0.965,0,1,1,310.093,743.781Z" transform="translate(-293.656 -734.656)"/>
</svg>
