<svg version="1.1" xmlns="http://www.w3.org/2000/svg" xmlns:xlink="http://www.w3.org/1999/xlink" x="0px"
	 y="0px" viewBox="0 0 106.5 66.8" style="enable-background:new 0 0 106.5 66.8;" xml:space="preserve">
  <defs>
    <style>
      .cls-1 {
        fill: #fff;
        fill-rule: evenodd;
      }
    </style>
  </defs>
<path class="cls-1" d="M97.6,61.9L80.7,10.1l11.7-8.4l-0.9-1.2L0.7,66l104.6,0v-4.1H97.6z M53.1,59.6c-5,0-9.1-5.7-9.1-12.8c0-7,4.1-12.8,9.1-12.8
	c5,0,9.1,5.7,9.1,12.8C62.3,53.9,58.2,59.6,53.1,59.6z M74.9,54.5c-5.3,0-9.5-6-9.5-13.4c0-7.4,4.3-13.4,9.5-13.4
	c5.3,0,9.5,6,9.5,13.4C84.4,48.5,80.2,54.5,74.9,54.5z"/>
<path class="cls-1" d="M55.1,37c-2,0-3.7,2.3-3.7,5c0,2.8,1.6,5,3.7,5c2,0,3.7-2.3,3.7-5C58.8,39.3,57.1,37,55.1,37"/>
<path class="cls-1" d="M76.5,30.2c-2.1,0-3.8,2.3-3.8,5.2c0,2.9,1.7,5.2,3.8,5.2c2.1,0,3.8-2.3,3.8-5.2C80.3,32.6,78.6,30.2,76.5,30.2"/>
</svg>
