<svg xmlns="http://www.w3.org/2000/svg" width="19" height="15.062" viewBox="0 0 19 15.062">
  <defs>
    <style>
      .cls-1 {
        fill: #fff;
        fill-rule: evenodd;
      }
    </style>
  </defs>
  <path id="twitter" class="cls-1" d="M161.415,739.91a7.017,7.017,0,0,1-2.175.6,4.081,4.081,0,0,0,1.634-2.079,6.452,6.452,0,0,1-2.447.847h0a3.96,3.96,0,0,0-2.836-1.182,3.876,3.876,0,0,0-3.923,3.826,3.758,3.758,0,0,0,.1.854h0a10.96,10.96,0,0,1-8.088-3.971,3.773,3.773,0,0,0,1.189,5.057,2.581,2.581,0,0,1-1.713-.433,3.7,3.7,0,0,0,3.027,3.74,3.19,3.19,0,0,1-1.634.121c0.125,1.125,1.74,2.6,3.507,2.6a7.089,7.089,0,0,1-5.657,1.59,12.011,12.011,0,0,0,6.137,1.692,10.755,10.755,0,0,0,10.981-11.177c0-.007,0-0.013,0-0.021s0-.032,0-0.048,0-.037,0-0.056A6.657,6.657,0,0,0,161.415,739.91Z" transform="translate(-142.406 -738.094)"/>
</svg>
