<?xml version="1.0" encoding="utf-8"?>
<!-- Generator: Adobe Illustrator 24.1.0, SVG Export Plug-In . SVG Version: 6.00 Build 0)  -->
<svg version="1.1" id="cicle" xmlns="http://www.w3.org/2000/svg" xmlns:xlink="http://www.w3.org/1999/xlink" x="0px" y="0px"
	 viewBox="0 0 148.7 151.6" style="enable-background:new 0 0 148.7 151.6;" xml:space="preserve">
<style type="text/css">
	.st0{opacity:0.2;fill-rule:evenodd;clip-rule:evenodd;fill:#FFFFFF;enable-background:new    ;}
	.st1{fill-rule:evenodd;clip-rule:evenodd;fill:#FFFFFF;}
	.st2{display:none;fill-rule:evenodd;clip-rule:evenodd;fill:#FFFFFF;}
</style>
<path id="シェイプ_1" class="st0" d="M28.3,61.6l2.4-2.4l2.1,0.2l1.4-1.8l1.3,0.4l1.4,0.7l1.9,1.8H40l3.7,0.8l1.3,0.2l6,3.6
	l1.6-1.2l1.6,1.2l3.1-0.2l1.6,0.1h0.7l1.1,0.5l0.5,1.1l0.9,0.1l1.6,4.9l2.2,0.7l2.1,0.5l1.5,1.3l2.6,0.4l1.6-0.2l2.2-1.1l2-0.8
	l1.3-0.5l1.6-0.6l1.1-1.1l1.2-1.1l0.5,0.5l-0.2,1.9l-2,2.5l0.2,0.5l1.6-0.5l0.5,0.8l0.7,0.4l0.7-0.2h0.5l1.9-2h1.3l0.4,0.9l1.2-0.1
	l0.8-0.6l0.4-1.1l2.1-2.2l3.9-0.1l2.3,1.5l1.1,0.5l0.7,0.2l1.8-1.2l-0.4-1.6l1.6-1.2l1.3,0.9l3.3-0.4l0.5,1.2l1.6,0.4l1.2,0.8
	l1.5-0.4l0.4,1.5h1.1l-0.4,1.4L115,74l0.5,1.6l0.8,1.3l0.2,1.8l0.4,1.2l0.9,1.2v1.3l0.5,0.8l-0.4,0.8l-1.2,0.9l-1.1,0.7l-0.2,1.5
	v1.1l-0.9,0.7l-0.4,0.2l-1.7-1.9l-0.6-1.8l-0.5,1.4l-2.7,1.2H108l-1.2-1.5L106,88l-1.2,0.6l-0.9,0.9l-0.9,1.3l-0.1,2.2l-0.2,3.9
	l-0.6,0.5v1.2l1.1,1.4l0.9,0.7l0.1,1.1l-0.4,0.7l-5.5,0.4l-0.1-1.6l-2.1-1.1l-2.2-3.5l-2-1.7l-1.5-1.3l-2.8-1.1l-1.3-0.4L85.4,92
	L84,90.8l-2-0.2l-1.8,0.9l-0.6,0.9L79.3,93l-0.2,1L79,94.7l-0.7,0.2l-1.9-1.8l-1.5,0.1v1.3l1.4,0.6l3.7,3.5l-1.2,1.3l-0.7-1.6
	L77.3,98l-1.1,1.8l1.4,1.9L78,103l0.1,1.5l0.1,1.3l-0.8,1.6l-0.5,0.4l-2.2-4.5l-1.2-0.6l-2.9-3.9l-3.1-2.4l-2.4-1.3L62.7,95h-1.1
	l-2.2-1.4l-1.5,0.8l-1.4,0.5L53,91.3v-1.8l-1.3-0.8L51,88.9l-0.6,0.5l-0.7-0.1l-1.5-1.5v-0.5l-0.9-0.5l-1.5-0.6l-1-0.2l-2.1-2.2
	l-1.5-0.6L39.8,83l-1.2-0.7L35.5,81l-0.8-1.8l-1.4-1.8l-0.7-0.8L31.8,73v-1.2L30.3,70l-0.1-3.9L29,66l-1.1-2L28.3,61.6z"/>
<path id="_45.139_E_41.35_N" class="st1" d="M83.8,59.9v-1.1l-5-2.5h-0.6v2.9h-1.7V60h1.7v1h0.7v-1h4.9V59.9z M78.8,59.2V57l2.8,1.3
	c0.5,0.3,1,0.5,1.6,0.7v0.2c-0.7,0-1.2,0-1.8,0H78.8L78.8,59.2z M83.7,66.6V63l-4.1-0.2l-0.1,0.7c0.6,0.2,0.9,0.7,0.9,1.2
	c0,0.8-0.6,1.3-1.7,1.3s-1.8-0.5-1.8-1.3c0-0.6,0.4-1.2,1-1.3l-0.3-0.8c-0.9,0.3-1.5,1.2-1.4,2.1c0,1.2,1,2.2,2.3,2.2
	c0.1,0,0.2,0,0.2,0c1.2,0.1,2.2-0.7,2.4-1.9v-0.1c0-0.5-0.3-1.1-0.7-1.4c0.3,0,0.6,0,0.8,0.1l1.7,0.1v2.9L83.7,66.6L83.7,66.6z
	 M77.5,69.9v-1.1h-1.1v1.1H77.5z M83.8,74.5v-0.7c-0.4-0.5-0.7-1.1-0.9-1.7l-0.7,0.1c0.2,0.5,0.4,1,0.7,1.5h-5.8v-1.5h-0.7v3.6h0.7
	v-1.4L83.8,74.5L83.8,74.5z M82.1,78.7c0.6,0.1,1.1,0.7,1.1,1.3c0.1,0.6-0.4,1.2-1,1.2c-0.1,0-0.1,0-0.2,0c-0.7,0-1.3-0.5-1.4-1.3
	c0-0.1,0-0.2,0-0.3v-0.5h-0.7v0.6c0.1,0.8-0.4,1.5-1.1,1.6c-0.1,0-0.2,0-0.4,0c-0.7,0.1-1.4-0.4-1.4-1.2c0-0.1,0-0.1,0-0.2
	c-0.1-0.7,0.4-1.3,1.1-1.4l-0.3-0.8c-1,0.3-1.6,1.2-1.5,2.2c-0.1,1.1,0.8,2.1,1.9,2.2c0.1,0,0.2,0,0.2,0c0.9,0,1.7-0.6,1.9-1.5h0.1
	c0.1,0.8,0.8,1.4,1.7,1.4c1,0,1.8-0.9,1.8-1.9V80c0-1-0.6-1.8-1.5-2.1L82.1,78.7z M77.3,84.1c-0.7,0.3-1.1,1-1,1.7
	c0,1.5,1.2,2.4,4.1,2.4c2.4,0,3.4-0.9,3.4-2.3c0-1.2-1-2.1-2.5-2.1c-1.1-0.1-2.2,0.7-2.3,1.8v0.1c0,0.7,0.4,1.3,1,1.6
	c-2.3-0.1-3.1-0.6-3.1-1.6c0-0.4,0.3-0.8,0.7-0.9L77.3,84.1z M80.8,87.4c-0.6-0.2-1.1-0.8-1.1-1.4c0.1-0.8,0.8-1.3,1.5-1.2h0.1
	c1.1,0,1.8,0.5,1.8,1.3C83.1,86.9,82.3,87.4,80.8,87.4L80.8,87.4z M84,91c0-0.7-0.5-1.2-1.2-1.2l0,0c-0.7,0-1.2,0.6-1.2,1.2
	c0,0.7,0.5,1.2,1.2,1.2l0,0C83.5,92.2,84,91.7,84,91L84,91z M83.6,91c0,0.4-0.3,0.7-0.7,0.8l0,0c-0.4,0-0.8-0.3-0.8-0.7l0,0
	c0-0.4,0.3-0.8,0.7-0.8l0,0C83.2,90.2,83.6,90.5,83.6,91L83.6,91z M83.8,109.1v-4.7h-7.4v4.7h0.7v-3.9H80v2.9h0.7v-2.9h2.4v3.8
	L83.8,109.1L83.8,109.1z M68.6,64.7v-1.1l-5-2.5H63V64h-1.7v0.8H63v1h0.7v-1h4.9V64.7z M63.6,64v-2.2l2.7,1.3c0.5,0.3,1,0.5,1.6,0.7
	V64c-0.7,0-1.2,0-1.8,0H63.6L63.6,64z M68.6,70v-0.7c-0.4-0.5-0.7-1.1-0.9-1.7L67,67.8c0.2,0.5,0.4,1,0.7,1.5h-5.8v-1.5h-0.7v3.6
	h0.7V70H68.6L68.6,70z M62.4,74.7v-1.1h-1.1v1.1H62.4z M67,77.4c0.6,0.1,1.1,0.7,1.1,1.3c0.1,0.6-0.4,1.2-1,1.2c-0.1,0-0.1,0-0.2,0
	c-0.7,0-1.3-0.5-1.4-1.3c0-0.1,0-0.2,0-0.3v-0.5h-0.7v0.6c0.1,0.8-0.4,1.5-1.1,1.6c-0.1,0-0.2,0-0.4,0c-0.7,0.1-1.4-0.4-1.4-1.2
	c0-0.1,0-0.1,0-0.2c0-0.7,0.4-1.3,1.1-1.4l-0.3-0.8c-1,0.3-1.6,1.2-1.5,2.2c-0.1,1.1,0.8,2.1,1.9,2.2c0.1,0,0.2,0,0.2,0
	c0.9,0,1.7-0.6,1.9-1.6h0.1c0.1,0.8,0.8,1.4,1.7,1.4c1,0,1.8-0.9,1.8-1.9v-0.1c0-1-0.6-1.8-1.5-2.1L67,77.4z M68.6,86.6V83l-4.1-0.2
	l-0.1,0.7c0.6,0.2,0.9,0.7,0.9,1.2c0,0.8-0.6,1.3-1.7,1.3c-1.1,0-1.8-0.5-1.8-1.3c0-0.6,0.4-1.2,1-1.3l-0.3-0.8
	c-0.9,0.3-1.5,1.2-1.4,2.1c0,1.2,1,2.2,2.3,2.2c0.1,0,0.1,0,0.2,0c1.2,0.1,2.2-0.7,2.4-1.9v-0.1c0-0.5-0.3-1.1-0.7-1.4
	c0.3,0,0.6,0.1,0.8,0.1l1.7,0.1v3L68.6,86.6L68.6,86.6z M68.9,89.7c0-0.7-0.5-1.2-1.2-1.2l0,0c-0.7,0-1.2,0.6-1.2,1.2
	c0,0.7,0.5,1.2,1.2,1.2l0,0C68.4,90.9,68.9,90.3,68.9,89.7L68.9,89.7L68.9,89.7z M68.5,89.7c0,0.4-0.3,0.7-0.7,0.8l0,0
	c-0.4,0-0.8-0.3-0.8-0.7l0,0c0-0.4,0.3-0.8,0.7-0.8l0,0C68.1,88.9,68.4,89.2,68.5,89.7C68.4,89.6,68.4,89.7,68.5,89.7L68.5,89.7z
	 M68.7,108.6v-0.8h-4c-0.9,0-1.6,0.1-2.4,0.1v-0.2c0.7-0.4,1.4-0.6,2.2-1l4.2-2.1v-1.4h-7.4v0.8h4.3c0.8,0,1.6,0,2.4,0v0.1
	c-0.8,0.4-1.4,0.6-2.2,1.1l-4.5,2.3v1.1H68.7L68.7,108.6z"/>
<path id="Make_Engaging_by_Design_Make_Engaging_by_Design_" class="st2" d="M104.8,17.8l1,0.6l4.5-7l0,0l-1.5,8.9l0.6,0.4l7.5-5.1
	l0,0l-4.5,7l1,0.6l5.3-8.3l-1.4-0.9l-7,4.7l0,0l1.4-8.4l-1.5-0.9L104.8,17.8z M119.8,22.3c0.4,0,0.7,0.1,1,0.2s0.6,0.3,0.9,0.6
	c0.3,0.3,0.6,0.7,0.6,1.1s-0.1,0.8-0.4,1.1l-0.1,0.1l-0.3-0.3c-0.3-0.3-0.6-0.6-1-0.8c-0.4-0.3-0.8-0.5-1.2-0.7
	c-0.4-0.2-0.8-0.2-1.2-0.2c-0.5,0.1-0.9,0.3-1.2,0.7c-0.2,0.2-0.3,0.5-0.4,0.8s-0.1,0.5,0,0.8s0.2,0.6,0.3,0.8
	c0.2,0.3,0.4,0.5,0.6,0.7c0.3,0.3,0.7,0.5,1.2,0.6c0.4,0.1,0.8,0.1,1.2,0l0,0c-0.1,0.1-0.2,0.2-0.3,0.4c-0.1,0.1-0.2,0.3-0.3,0.4
	l0.8,0.7c0.1-0.1,0.2-0.3,0.3-0.5c0.1-0.2,0.2-0.3,0.4-0.4l1.9-2.1c0.6-0.5,0.9-1.2,0.9-2c-0.1-0.8-0.5-1.5-1.1-1.9
	c-0.4-0.3-0.8-0.6-1.2-0.8c-0.4-0.2-0.9-0.3-1.4-0.2L119.8,22.3z M121.2,26l-0.3,0.3c-0.2,0.2-0.4,0.3-0.6,0.5
	c-0.2,0.1-0.4,0.2-0.7,0.2c-0.2,0-0.5,0-0.7-0.1c-0.3-0.1-0.5-0.2-0.7-0.4c-0.3-0.2-0.5-0.5-0.6-0.9c-0.1-0.3,0-0.7,0.3-0.9
	c0.3-0.3,0.7-0.4,1.1-0.3c0.5,0.2,1,0.5,1.4,0.9L121.2,26z M122,31.3l0.7,0.8l2.6-2.2l-0.5,4.7l1,1.2l0.4-5l4.3,0.5l-1-1.2l-4.1-0.4
	l5.3-4.5l-0.7-0.8L122,31.3z M131.4,40.8c-0.4,0-0.8-0.1-1.1-0.3c-0.4-0.2-0.7-0.5-0.9-0.9c-0.2-0.2-0.3-0.5-0.3-0.8s0-0.5,0-0.8
	c0.1-0.3,0.2-0.5,0.3-0.7s0.3-0.4,0.6-0.6l2.9,4.4l0.3-0.2c0.4-0.3,0.8-0.6,1.1-1c0.3-0.3,0.5-0.7,0.6-1.1c0.1-0.4,0.1-0.8,0-1.2
	s-0.3-0.8-0.5-1.2s-0.6-0.7-0.9-1c-0.4-0.2-0.8-0.4-1.2-0.5s-0.9-0.1-1.3,0c-0.5,0.1-0.9,0.3-1.3,0.5c-0.4,0.2-0.7,0.6-1,0.9
	c-0.3,0.3-0.4,0.7-0.6,1.1c-0.1,0.4-0.1,0.9,0,1.3c0.1,0.5,0.3,0.9,0.5,1.3c0.3,0.5,0.7,0.9,1.1,1.2c0.5,0.3,1,0.5,1.6,0.5
	L131.4,40.8z M130.8,36.1c1-0.5,2.2-0.2,2.7,0.8c0.3,0.4,0.4,1,0.4,1.5c-0.1,0.5-0.4,0.9-0.8,1.2L130.8,36.1z M134.1,49.8l2.3,6.1
	l1-0.4l-1.9-5l3.3-1.2l1.7,4.4l1-0.4l-1.7-4.4l2.9-1.1l1.8,4.7l1-0.4l-2.2-5.8L134.1,49.8z M137.1,58.5l0.2,1.1l3.1-0.7
	c0.3-0.1,0.7-0.1,1-0.1s0.6,0.1,0.9,0.2c0.3,0.1,0.5,0.3,0.6,0.5c0.2,0.3,0.3,0.5,0.4,0.9c0.1,0.4,0,0.9-0.2,1.2
	c-0.3,0.3-0.7,0.6-1.2,0.6l-3.8,0.9l0.2,1.1l3.9-0.9c0.4-0.1,0.7-0.2,1-0.4s0.5-0.4,0.7-0.6c0.2-0.3,0.3-0.6,0.4-0.9
	c0.1-0.4,0-0.8-0.1-1.1s-0.1-0.5-0.3-0.7c-0.1-0.2-0.2-0.4-0.4-0.6c-0.1-0.2-0.3-0.3-0.5-0.4c-0.2-0.1-0.3-0.2-0.5-0.2l0,0
	c0.2,0,0.4-0.1,0.5-0.1c0.2,0,0.3-0.1,0.5-0.1l-0.2-1c-0.2,0-0.4,0.1-0.7,0.2s-0.5,0.1-0.8,0.2L137.1,58.5z M145.9,73.2l-0.1-1.1
	l-1.1,0.1l0,0c0.2-0.1,0.4-0.3,0.5-0.5s0.3-0.4,0.4-0.6c0.1-0.2,0.2-0.4,0.2-0.7c0-0.2,0-0.5,0-0.7c0-0.5-0.2-1-0.3-1.4
	c-0.2-0.4-0.4-0.8-0.8-1c-0.3-0.3-0.7-0.5-1.1-0.6c-0.5-0.1-1-0.2-1.5-0.1c-0.5,0-0.9,0.2-1.3,0.4c-0.4,0.2-0.7,0.5-1,0.8
	s-0.5,0.7-0.6,1.2s-0.2,0.9-0.1,1.4c0,0.4,0.2,0.9,0.4,1.3s0.6,0.7,1,0.9l0,0l-0.8,0.1c-0.3,0-0.7,0-1,0s-0.6-0.2-0.9-0.3
	c-0.3-0.2-0.5-0.4-0.6-0.7c-0.2-0.4-0.3-0.8-0.3-1.2c0-0.5,0-0.9,0.2-1.4c0.2-0.4,0.4-0.8,0.8-1.2l-1-0.7c-0.4,0.4-0.7,1-0.8,1.5
	c-0.1,0.6-0.2,1.2-0.1,1.8c0,1,0.4,1.9,1.1,2.6c0.8,0.6,1.8,0.8,2.8,0.7L145.9,73.2z M143.1,67.8c0.3,0.1,0.6,0.2,0.8,0.4
	c0.2,0.2,0.4,0.4,0.6,0.7c0.2,0.3,0.2,0.6,0.3,0.9c0,0.3,0,0.7-0.1,1s-0.2,0.6-0.4,0.8c-0.2,0.2-0.4,0.4-0.7,0.5s-0.6,0.2-1,0.2
	c-0.3,0-0.6,0-0.9-0.1c-0.6-0.2-1.1-0.6-1.4-1.1c-0.2-0.3-0.3-0.6-0.3-1c0-0.3,0-0.6,0.1-0.9s0.2-0.5,0.4-0.8
	c0.2-0.2,0.4-0.4,0.7-0.6c0.3-0.1,0.6-0.2,0.9-0.3C142.5,67.7,142.8,67.7,143.1,67.8L143.1,67.8z M144.3,77.7
	c0.2,0.3,0.4,0.6,0.5,0.9s0.1,0.7,0.1,1.1s-0.2,0.8-0.4,1.2c-0.3,0.3-0.7,0.4-1.1,0.4h-0.2v-0.4c0-0.4,0-0.8,0-1.3s-0.1-0.9-0.2-1.4
	c-0.1-0.4-0.3-0.8-0.6-1.1c-0.3-0.3-0.8-0.5-1.2-0.5c-0.3,0-0.6,0-0.9,0.1c-0.2,0.1-0.5,0.3-0.6,0.5c-0.2,0.2-0.3,0.5-0.4,0.7
	c-0.1,0.3-0.2,0.6-0.2,0.9c0,0.5,0,0.9,0.2,1.3s0.4,0.7,0.8,0.9l0,0c-0.1,0-0.3,0-0.5,0s-0.3,0-0.5,0l-0.1,1c0.2,0,0.4,0,0.6,0
	s0.4,0,0.6,0l2.8,0.2c0.7,0.1,1.5-0.1,2.1-0.5c0.5-0.5,0.8-1.3,0.8-2.1c0-0.5,0-1-0.2-1.4c-0.1-0.5-0.4-0.9-0.7-1.2L144.3,77.7z
	 M142.2,81.2h-0.4c-0.3,0-0.5-0.1-0.8-0.2c-0.2-0.1-0.4-0.2-0.6-0.4c-0.2-0.2-0.3-0.4-0.4-0.6c-0.1-0.3-0.1-0.6-0.1-0.8
	c0-0.4,0.1-0.7,0.3-1s0.6-0.4,0.9-0.4c0.4,0,0.8,0.3,0.9,0.7c0.2,0.5,0.3,1.1,0.2,1.7L142.2,81.2z M143.8,92.8l0.2-1.1l-1.1-0.2l0,0
	c0.2-0.1,0.4-0.2,0.6-0.3c0.2-0.1,0.4-0.3,0.5-0.5s0.3-0.4,0.4-0.6c0.1-0.2,0.2-0.4,0.2-0.6c0.1-0.5,0.1-1,0-1.4s-0.2-0.8-0.5-1.2
	c-0.2-0.4-0.6-0.7-0.9-0.9c-0.4-0.3-0.9-0.4-1.4-0.5s-0.9-0.1-1.4,0c-0.4,0.1-0.8,0.2-1.2,0.5s-0.7,0.6-0.9,0.9
	c-0.3,0.4-0.4,0.9-0.5,1.3s-0.1,0.9,0,1.3c0.1,0.5,0.4,0.9,0.7,1.2l0,0l-0.8-0.2c-0.3-0.1-0.6-0.2-1-0.3c-0.3-0.1-0.5-0.3-0.8-0.5
	c-0.2-0.2-0.4-0.5-0.4-0.9c-0.1-0.9,0.1-1.8,0.6-2.5c0.3-0.4,0.6-0.7,1-0.9l-0.7-0.9c-0.5,0.3-0.9,0.8-1.2,1.3s-0.5,1.1-0.6,1.7
	c-0.3,0.9-0.1,1.9,0.4,2.8c0.6,0.8,1.5,1.3,2.5,1.4L143.8,92.8z M142.6,86.9c0.3,0.2,0.5,0.4,0.7,0.6s0.3,0.5,0.4,0.8
	c0.1,0.3,0.1,0.6,0,1c-0.1,0.3-0.2,0.6-0.4,0.9s-0.4,0.5-0.6,0.6c-0.3,0.2-0.5,0.3-0.8,0.3c-0.3,0.1-0.7,0-1,0
	c-0.3-0.1-0.6-0.2-0.9-0.3c-0.5-0.3-0.9-0.8-1-1.4c-0.1-0.3-0.1-0.7,0-1s0.2-0.6,0.4-0.8c0.2-0.2,0.4-0.5,0.6-0.6
	c0.2-0.2,0.5-0.3,0.8-0.3c0.3-0.1,0.6-0.1,0.9,0C142.1,86.6,142.4,86.8,142.6,86.9L142.6,86.9z M136.5,94.6l-0.3,1l6.3,2l0.3-1
	L136.5,94.6z M144.6,97.1c-0.4,0.2-0.5,0.7-0.3,1.1s0.7,0.5,1.1,0.3l0,0c0.4-0.2,0.5-0.7,0.3-1.1l0,0C145.5,97.1,145,97,144.6,97.1
	L144.6,97.1z M135.1,98.8l-0.4,1l2.9,1.3c0.3,0.1,0.6,0.3,0.9,0.5c0.2,0.2,0.4,0.4,0.6,0.6c0.1,0.2,0.2,0.5,0.2,0.8
	s-0.1,0.6-0.2,0.9c-0.1,0.4-0.5,0.7-0.9,0.9c-0.5,0.1-0.9,0-1.3-0.2l-3.6-1.6l-0.4,1l3.7,1.6c0.3,0.1,0.7,0.2,1.1,0.3
	c0.3,0,0.6,0,1-0.1c0.3-0.1,0.6-0.3,0.8-0.5c0.3-0.3,0.5-0.6,0.6-0.9c0.1-0.2,0.2-0.5,0.2-0.7s0-0.5,0-0.7s-0.1-0.4-0.2-0.6
	c-0.1-0.2-0.2-0.3-0.3-0.5l0,0c0.2,0.1,0.3,0.1,0.5,0.2s0.3,0.1,0.5,0.2l0.4-1c-0.2-0.1-0.4-0.2-0.7-0.3s-0.5-0.2-0.8-0.3
	L135.1,98.8z M133.6,115.8l0.6-0.9l-1-0.6l0,0c0.2,0,0.5,0,0.7-0.1s0.4-0.1,0.6-0.3c0.2-0.1,0.4-0.3,0.5-0.4
	c0.2-0.2,0.3-0.3,0.4-0.5c0.3-0.4,0.4-0.9,0.5-1.3s0.1-0.9,0-1.3s-0.3-0.8-0.6-1.2c-0.3-0.4-0.7-0.7-1.1-1c-0.4-0.2-0.8-0.4-1.3-0.5
	c-0.4-0.1-0.9-0.1-1.3,0.1c-0.4,0.1-0.8,0.3-1.2,0.6c-0.4,0.3-0.7,0.7-1,1.1c-0.2,0.4-0.4,0.8-0.4,1.3s0,0.9,0.3,1.4l0,0l-0.7-0.4
	c-0.3-0.2-0.6-0.4-0.8-0.6s-0.4-0.5-0.5-0.8s-0.1-0.6-0.1-1c0.2-0.9,0.7-1.6,1.4-2.1c0.4-0.2,0.8-0.4,1.3-0.5l-0.4-1.1
	c-0.6,0.1-1.1,0.4-1.6,0.8c-0.5,0.4-0.8,0.8-1.1,1.3c-0.6,0.8-0.8,1.8-0.6,2.8c0.3,1,1,1.7,1.8,2.2L133.6,115.8z M134.6,109.9
	c0.2,0.2,0.3,0.5,0.4,0.8c0.1,0.3,0.1,0.6,0.1,0.9s-0.2,0.6-0.3,0.9c-0.2,0.3-0.4,0.5-0.6,0.7c-0.2,0.2-0.5,0.3-0.8,0.4
	s-0.6,0.1-0.9,0c-0.3-0.1-0.6-0.2-0.9-0.4c-0.3-0.2-0.5-0.4-0.7-0.6c-0.4-0.5-0.6-1.1-0.5-1.7c0-0.3,0.2-0.7,0.4-1s0.4-0.5,0.6-0.7
	c0.2-0.2,0.5-0.3,0.8-0.4s0.6-0.1,0.9,0c0.3,0,0.6,0.2,0.9,0.3C134.1,109.4,134.4,109.6,134.6,109.9L134.6,109.9z M123.1,118.8
	l-0.8,0.8l0.8,0.8l0,0c-0.4-0.1-0.9-0.1-1.4,0c-0.5,0.2-1,0.4-1.4,0.8c-0.3,0.3-0.6,0.7-0.7,1.1c-0.2,0.4-0.2,0.8-0.2,1.3
	c0,0.4,0.1,0.9,0.3,1.3c0.4,0.9,1.1,1.5,2,1.9c0.4,0.2,0.8,0.3,1.3,0.3c0.4,0,0.9-0.1,1.3-0.3c0.4-0.2,0.8-0.5,1.2-0.8
	c0.3-0.3,0.6-0.7,0.7-1.1s0.2-0.9,0.1-1.3l0,0l3.6,3.5l0.8-0.8L123.1,118.8z M125.3,122.6c0.3,0.5,0.3,1.2,0.1,1.8
	c-0.2,0.6-0.7,1.1-1.3,1.4c-0.6,0.2-1.2,0.2-1.8,0c-0.6-0.3-1.1-0.7-1.4-1.3c-0.3-0.5-0.3-1.2-0.1-1.8c0.2-0.6,0.7-1.1,1.3-1.4
	c0.6-0.2,1.2-0.2,1.8,0c0.3,0.1,0.6,0.3,0.8,0.6C125,122.1,125.2,122.3,125.3,122.6L125.3,122.6z M115.9,134.1l0.9-0.7l-1.7-5.2l0,0
	l4.8,2.8l1-0.8l-6.2-3.5l-0.4-1.2c-0.1-0.3-0.1-0.6-0.1-0.9s0.2-0.6,0.4-0.7c0.1-0.1,0.2-0.2,0.3-0.2c0.1-0.1,0.2-0.1,0.3-0.1
	l-0.5-0.8c-0.2,0-0.3,0.1-0.5,0.2c-0.1,0.1-0.3,0.2-0.4,0.3c-0.2,0.2-0.4,0.4-0.6,0.6c-0.1,0.2-0.2,0.4-0.2,0.7c0,0.2,0,0.5,0,0.7
	c0.1,0.3,0.1,0.5,0.2,0.8L115.9,134.1z M105.7,132.9l-3.4,1.6c-0.7,0.3-1.2,0.8-1.7,1.3c-0.3,0.3-0.5,0.7-0.7,1
	c-0.2,0.4-0.3,0.8-0.4,1.2c-0.1,0.5-0.1,0.9,0,1.4c0.2,1.1,0.7,2.1,1.4,2.9c0.3,0.4,0.7,0.7,1.1,0.9s0.8,0.4,1.2,0.5
	c0.4,0.1,0.8,0.1,1.2,0.1c0.7,0,1.5-0.2,2.1-0.5l3.4-1.6L105.7,132.9z M108.4,141.4l-2,1c-0.5,0.2-1,0.4-1.5,0.5s-1,0-1.4-0.1
	c-0.5-0.1-0.9-0.4-1.3-0.7c-0.9-0.8-1.4-2-1.5-3.2c0-0.5,0.1-1,0.2-1.4c0.2-0.4,0.5-0.8,0.8-1.2c0.4-0.4,0.8-0.7,1.3-0.9l2-1
	L108.4,141.4z M90.9,140.7c0.1-0.4,0.4-0.7,0.6-1c0.3-0.3,0.7-0.5,1.1-0.6c0.3-0.1,0.6-0.1,0.8-0.1c0.3,0,0.5,0.1,0.8,0.2
	c0.2,0.1,0.4,0.3,0.6,0.5s0.3,0.5,0.4,0.7l-5.1,1.5l0.1,0.3c0.1,0.5,0.3,0.9,0.6,1.3c0.2,0.3,0.6,0.6,0.9,0.9
	c0.3,0.2,0.7,0.3,1.1,0.4c0.4,0,0.9,0,1.3-0.1s0.9-0.3,1.2-0.6c0.3-0.3,0.6-0.6,0.8-1c0.2-0.4,0.3-0.8,0.4-1.2c0-0.5,0-1-0.2-1.4
	c-0.1-0.4-0.3-0.9-0.6-1.2c-0.3-0.3-0.6-0.6-0.9-0.9c-0.4-0.2-0.8-0.4-1.2-0.4c-0.5-0.1-1,0-1.4,0.1c-0.5,0.1-1,0.4-1.5,0.7
	c-0.4,0.4-0.7,0.8-0.9,1.4L90.9,140.7z M95.5,141.5c0.2,1.1-0.5,2.1-1.5,2.4c-0.5,0.2-1,0.1-1.5-0.1c-0.4-0.2-0.8-0.7-0.9-1.1
	L95.5,141.5z M87.5,140.7c-0.3-0.4-0.8-0.6-1.2-0.8c-0.5-0.1-1-0.1-1.5,0c-0.3,0.1-0.6,0.1-0.9,0.3c-0.3,0.1-0.5,0.3-0.8,0.5
	c-0.2,0.2-0.4,0.4-0.5,0.7s-0.1,0.7-0.1,1s0.1,0.6,0.3,0.8c0.1,0.2,0.3,0.4,0.5,0.5s0.5,0.2,0.7,0.2c0.3,0,0.6,0.1,0.8,0.1
	c0.2,0,0.4,0,0.6,0s0.4,0.1,0.6,0.1c0.1,0,0.3,0.1,0.4,0.2c0.1,0.1,0.2,0.2,0.2,0.3s0,0.3-0.1,0.4c-0.1,0.1-0.1,0.2-0.2,0.3
	s-0.2,0.2-0.4,0.2c-0.1,0.1-0.3,0.1-0.4,0.1c-0.3,0.1-0.6,0-0.9-0.1c-0.2-0.1-0.5-0.3-0.6-0.5l-0.8,0.7c0.3,0.4,0.6,0.6,1.1,0.7
	c0.4,0.1,0.9,0.1,1.3,0.1c0.3,0,0.6-0.1,0.9-0.3c0.3-0.1,0.5-0.3,0.7-0.5s0.4-0.4,0.5-0.7s0.1-0.6,0.1-0.9c0-0.3-0.1-0.6-0.3-0.8
	c-0.2-0.2-0.4-0.3-0.6-0.4c-0.2-0.1-0.5-0.2-0.8-0.2s-0.6-0.1-0.9-0.1c-0.2,0-0.4,0-0.5,0c-0.2,0-0.3-0.1-0.5-0.1
	c-0.1-0.1-0.3-0.1-0.4-0.2c-0.1-0.1-0.2-0.3-0.2-0.4c0-0.2,0-0.3,0.1-0.5c0.1-0.1,0.2-0.3,0.3-0.4c0.1-0.1,0.3-0.2,0.4-0.3
	c0.2-0.1,0.3-0.1,0.5-0.1c0.3-0.1,0.7,0,1,0.1s0.6,0.3,0.8,0.5L87.5,140.7z M79.6,140.8l-1.1,0.1l0.5,6.5l1.1-0.1L79.6,140.8z
	 M80.3,149.3c-0.3-0.3-0.8-0.3-1.1,0.1s-0.3,0.8,0.1,1.1c0.3,0.3,0.8,0.3,1.1-0.1l0,0C80.6,150.1,80.6,149.6,80.3,149.3L80.3,149.3z
	 M68.5,147.4h1.1v-1.1l0,0c0.1,0.2,0.2,0.4,0.4,0.6c0.2,0.2,0.3,0.3,0.6,0.4c0.2,0.1,0.4,0.2,0.6,0.3s0.4,0.1,0.7,0.1
	c0.5,0,1,0,1.4-0.2c0.4-0.1,0.8-0.4,1.1-0.6c0.3-0.3,0.6-0.7,0.7-1.1c0.2-0.5,0.3-0.9,0.3-1.4s-0.1-0.9-0.2-1.4
	c-0.1-0.4-0.4-0.8-0.7-1.1c-0.3-0.3-0.7-0.6-1.1-0.7c-0.4-0.2-0.9-0.3-1.4-0.3c-0.4,0-0.9,0.1-1.3,0.3s-0.8,0.5-1,0.9l0,0v-0.8
	c0-0.3,0.1-0.7,0.1-1c0.1-0.3,0.2-0.6,0.4-0.8c0.2-0.3,0.5-0.4,0.8-0.6c0.8-0.3,1.7-0.2,2.5,0.1c0.4,0.2,0.8,0.5,1.1,0.9l0.8-0.9
	c-0.4-0.4-0.9-0.8-1.4-1c-0.6-0.2-1.1-0.3-1.7-0.3c-1-0.1-1.9,0.2-2.7,0.9c-0.7,0.7-1,1.7-1,2.7L68.5,147.4z M74.1,145.3
	c-0.1,0.3-0.3,0.5-0.5,0.8c-0.2,0.2-0.5,0.4-0.7,0.5c-0.3,0.1-0.6,0.2-0.9,0.2s-0.6-0.1-0.9-0.2c-0.3-0.1-0.5-0.3-0.7-0.5
	s-0.4-0.5-0.5-0.8s-0.2-0.6-0.1-1c0-0.3,0.1-0.6,0.2-0.9c0.2-0.6,0.7-1,1.2-1.2c0.3-0.1,0.7-0.2,1-0.2s0.6,0.1,0.9,0.2
	c0.3,0.1,0.5,0.3,0.7,0.5s0.4,0.5,0.5,0.8s0.2,0.6,0.2,0.9C74.3,144.7,74.3,145,74.1,145.3L74.1,145.3z M65.6,140.6l-1.1-0.2
	l-0.5,3.1c-0.1,0.3-0.2,0.7-0.3,1s-0.3,0.5-0.5,0.7s-0.4,0.3-0.7,0.4c-0.3,0.1-0.6,0.1-0.9,0c-0.4,0-0.8-0.3-1-0.7s-0.2-0.9-0.1-1.3
	l0.7-3.9l-1.1-0.2l-0.7,4c-0.1,0.4-0.1,0.7,0,1.1c0,0.3,0.1,0.6,0.3,0.9c0.2,0.3,0.4,0.5,0.7,0.7s0.7,0.3,1.1,0.4
	c0.5,0.1,1,0,1.4-0.1c0.2-0.1,0.4-0.2,0.5-0.3s0.3-0.2,0.4-0.4l0,0c0,0.2-0.1,0.4-0.1,0.5c0,0.2,0,0.4-0.1,0.5l1,0.2
	c0-0.2,0.1-0.4,0.1-0.7s0.1-0.5,0.1-0.8L65.6,140.6z M49,143c0.7,0.3,1.6-0.1,1.9-0.9s-0.1-1.6-0.9-1.9c-0.7-0.3-1.6,0.1-1.9,0.9
	l0,0C47.9,141.9,48.3,142.7,49,143L49,143z M42.7,133.3l-1-0.6l-4.5,7l0,0l1.5-8.9l-0.6-0.4l-7.5,5l0,0l4.5-7l-1-0.6l-5.4,8.3
	l1.4,0.9l7.1-4.7l0,0l-1.4,8.3l1.5,1L42.7,133.3z M27.8,128.8c-0.4,0-0.7-0.1-1-0.2c-0.3-0.1-0.6-0.3-0.9-0.6
	c-0.3-0.3-0.6-0.7-0.6-1.1s0.1-0.8,0.4-1.1l0.1-0.1l0.3,0.3c0.3,0.3,0.6,0.6,1,0.9s0.8,0.5,1.2,0.7c0.4,0.2,0.8,0.2,1.2,0.2
	c0.5-0.1,0.9-0.3,1.2-0.7c0.2-0.2,0.3-0.5,0.4-0.8s0.1-0.5,0-0.8s-0.2-0.6-0.3-0.8c-0.2-0.3-0.4-0.5-0.6-0.7
	c-0.3-0.3-0.7-0.5-1.2-0.6c-0.4-0.1-0.8-0.1-1.2,0l0,0c0.1-0.1,0.2-0.2,0.3-0.4c0.1-0.1,0.2-0.3,0.3-0.4l-0.8-0.7
	c-0.1,0.1-0.2,0.3-0.3,0.5c-0.1,0.2-0.2,0.3-0.4,0.4l-1.9,2.1c-0.6,0.5-0.9,1.2-0.9,2c0.1,0.8,0.5,1.5,1.1,1.9
	c0.4,0.3,0.8,0.6,1.2,0.8c0.4,0.2,0.9,0.3,1.4,0.2L27.8,128.8z M26.4,125l0.3-0.3c0.2-0.2,0.4-0.3,0.6-0.5c0.2-0.1,0.4-0.2,0.7-0.2
	c0.2,0,0.5,0,0.7,0.1c0.3,0.1,0.5,0.2,0.7,0.4c0.3,0.2,0.5,0.5,0.6,0.9c0.1,0.3,0,0.7-0.3,0.9c-0.3,0.3-0.7,0.4-1.1,0.3
	c-0.5-0.2-1-0.5-1.4-0.9L26.4,125z M25.6,119.7l-0.7-0.8l-2.6,2.2l0.5-4.7l-1-1.2l-0.5,5l-4.3-0.5l1,1.2l4.1,0.4l-5.3,4.5l0.7,0.8
	L25.6,119.7z M16.2,110.2c0.4,0,0.8,0.1,1.1,0.3c0.4,0.2,0.7,0.5,0.9,0.9c0.2,0.2,0.3,0.5,0.3,0.8s0,0.5,0,0.8
	c-0.1,0.3-0.2,0.5-0.3,0.7c-0.2,0.2-0.3,0.4-0.6,0.6l-2.9-4.4l-0.3,0.2c-0.4,0.3-0.8,0.6-1.1,1c-0.3,0.3-0.5,0.7-0.6,1.1
	s-0.1,0.8,0,1.2c0.1,0.4,0.3,0.8,0.5,1.2c0.2,0.4,0.6,0.7,0.9,1c0.4,0.2,0.7,0.4,1.2,0.5c0.4,0.1,0.9,0.1,1.3,0
	c0.5-0.1,0.9-0.3,1.3-0.5s0.7-0.6,1-0.9s0.5-0.7,0.6-1.1s0.1-0.9,0.1-1.3c-0.1-0.5-0.3-0.9-0.5-1.3c-0.3-0.5-0.7-0.9-1.1-1.2
	c-0.5-0.3-1-0.5-1.6-0.5L16.2,110.2z M16.8,114.9c-1,0.5-2.2,0.2-2.7-0.8c-0.3-0.4-0.4-1-0.4-1.5c0.1-0.5,0.4-0.9,0.8-1.2
	L16.8,114.9z M13.7,101.2l-2.3-6.1l-1,0.4l1.9,5L9,101.7l-1.6-4.4l-1,0.4l1.6,4.4l-3,1.1l-1.8-4.7l-1,0.4l2.2,5.8L13.7,101.2z
	 M10.7,92.5l-0.2-1.1l-3.1,0.7c-0.3,0.1-0.7,0.1-1,0.1S5.8,92.1,5.5,92S5,91.7,4.9,91.5c-0.2-0.3-0.3-0.5-0.4-0.9s0-0.9,0.2-1.2
	c0.3-0.3,0.7-0.6,1.2-0.6L9.7,88l-0.2-1.1l-4,0.9c-0.4,0.1-0.7,0.2-1,0.4c-0.3,0.2-0.5,0.4-0.7,0.6c-0.2,0.3-0.3,0.6-0.4,0.9
	c-0.1,0.4,0,0.8,0,1.1c0.1,0.3,0.1,0.5,0.3,0.7c0.1,0.2,0.2,0.4,0.4,0.6c0.1,0.2,0.3,0.3,0.5,0.4s0.3,0.2,0.5,0.2l0,0
	c-0.2,0-0.4,0.1-0.5,0.1c-0.2,0-0.3,0.1-0.5,0.1l0.2,1c0.2,0,0.4-0.1,0.7-0.2c0.3-0.1,0.5-0.1,0.8-0.2L10.7,92.5z M2,77.8v1.1
	l1.1-0.1l0,0c-0.2,0.1-0.4,0.3-0.5,0.5c-0.2,0.2-0.3,0.4-0.4,0.6C2.1,80.1,2,80.3,2,80.6c0,0.2,0,0.5,0,0.7c0,0.5,0.1,1,0.3,1.4
	s0.4,0.8,0.8,1c0.3,0.3,0.7,0.5,1.1,0.6c0.5,0.1,1,0.2,1.5,0.1c0.5,0,0.9-0.1,1.3-0.4c0.4-0.2,0.7-0.5,1-0.8s0.5-0.7,0.6-1.2
	s0.2-0.9,0.1-1.4c0-0.4-0.2-0.9-0.4-1.3s-0.6-0.7-1-1l0,0l0.8-0.1c0.3,0,0.7,0,1,0s0.6,0.2,0.9,0.3c0.3,0.2,0.5,0.4,0.6,0.7
	c0.4,0.8,0.4,1.7,0.1,2.5c-0.2,0.4-0.4,0.8-0.8,1.2l1,0.7c0.4-0.4,0.7-1,0.9-1.5c0.2-0.6,0.2-1.2,0.1-1.8c0-1-0.4-1.9-1.1-2.6
	C10,77.1,9,76.8,8,77L2,77.8z M4.7,83.2c-0.3-0.1-0.6-0.2-0.8-0.4c-0.2-0.2-0.4-0.4-0.6-0.7c-0.2-0.3-0.2-0.6-0.3-0.9
	c0-0.3,0-0.7,0.1-1s0.2-0.6,0.4-0.8C3.8,79.2,4,79,4.3,78.9s0.6-0.2,1-0.2c0.3,0,0.6,0,0.9,0.1c0.6,0.2,1.1,0.6,1.4,1.1
	c0.2,0.3,0.3,0.6,0.3,1c0,0.3,0,0.6-0.1,0.9c-0.3,0.9-1.1,1.5-2.1,1.6C5.3,83.3,5,83.2,4.7,83.2z M3.6,73.3
	c-0.2-0.3-0.4-0.6-0.5-0.9C3,72,2.9,71.6,3,71.3c0-0.4,0.2-0.8,0.4-1.2c0.3-0.3,0.7-0.4,1.1-0.4h0.2v0.4c0,0.4,0,0.8,0,1.3
	s0.1,0.9,0.2,1.4c0.1,0.4,0.3,0.8,0.6,1.1c0.3,0.3,0.8,0.5,1.2,0.5c0.3,0,0.6,0,0.9-0.1C7.8,74.2,8,74,8.2,73.8s0.3-0.5,0.4-0.7
	c0.1-0.3,0.2-0.6,0.2-0.9c0-0.5,0-0.9-0.2-1.3S8.2,70.2,7.8,70l0,0c0.1,0,0.3,0,0.5,0s0.3,0,0.5,0l0.1-1c-0.2,0-0.4,0-0.6,0
	s-0.4,0-0.6,0l-2.8-0.2c-0.7-0.1-1.5,0.1-2.1,0.5c-0.5,0.5-0.8,1.3-0.8,2c0,0.5,0,1,0.2,1.4c0.1,0.5,0.4,0.9,0.7,1.2L3.6,73.3z
	 M5.6,69.8H6c0.3,0,0.5,0.1,0.8,0.2c0.2,0.1,0.4,0.2,0.6,0.4c0.2,0.2,0.3,0.4,0.4,0.6c0.1,0.3,0.1,0.6,0.1,0.8c0,0.4-0.1,0.7-0.3,1
	c-0.2,0.3-0.6,0.4-0.9,0.4c-0.4,0-0.8-0.3-0.9-0.7c-0.2-0.5-0.2-1.1-0.2-1.7V69.8z M4.1,58.1l-0.2,1.1L5,59.4l0,0
	c-0.2,0.1-0.4,0.2-0.6,0.3S4,60,3.9,60.2s-0.3,0.4-0.4,0.6c-0.1,0.2-0.2,0.4-0.2,0.6c-0.1,0.5-0.1,1,0,1.4s0.2,0.8,0.4,1.2
	s0.6,0.7,0.9,0.9C5,65.2,5.5,65.3,6,65.4s0.9,0.1,1.4,0c0.4-0.1,0.8-0.2,1.2-0.5C9,64.6,9.3,64.3,9.5,64c0.3-0.4,0.4-0.9,0.5-1.3
	c0.1-0.4,0.1-0.9,0-1.3c-0.1-0.5-0.4-0.9-0.7-1.2l0,0l0.8,0.2c0.3,0.1,0.6,0.2,1,0.3c0.3,0.1,0.5,0.3,0.8,0.6
	c0.2,0.2,0.4,0.5,0.4,0.9c0.1,0.9-0.1,1.8-0.6,2.5c-0.3,0.4-0.6,0.7-1,0.9l0.7,0.9c0.5-0.3,0.9-0.8,1.2-1.3s0.5-1.1,0.6-1.7
	c0.3-0.9,0.1-1.9-0.4-2.8c-0.6-0.8-1.5-1.3-2.5-1.4L4.1,58.1z M5.2,64c-0.3-0.2-0.5-0.4-0.7-0.6c-0.2-0.2-0.3-0.5-0.4-0.8
	s-0.1-0.6,0-1c0.1-0.3,0.2-0.6,0.4-0.9c0.2-0.3,0.4-0.5,0.6-0.6C5.5,60,5.8,59.8,6,59.8c0.3-0.1,0.7,0,1,0c0.3,0.1,0.6,0.2,0.9,0.3
	c0.5,0.3,0.9,0.8,1,1.4c0.1,0.3,0.1,0.7,0,1s-0.2,0.6-0.4,0.8s-0.4,0.5-0.6,0.6c-0.5,0.3-1.2,0.5-1.8,0.3C5.8,64.3,5.5,64.2,5.2,64
	L5.2,64z M11.4,56.4l0.3-1l-6.2-2l-0.3,1L11.4,56.4z M3.3,53.8c0.4-0.2,0.6-0.7,0.3-1.1s-0.7-0.6-1.1-0.3c-0.4,0.2-0.5,0.7-0.4,1.1
	l0,0C2.4,53.8,2.9,54,3.3,53.8z M12.8,52.2l0.4-1L10.3,50c-0.3-0.1-0.6-0.3-0.9-0.5C9.2,49.3,9,49,8.8,48.8
	c-0.1-0.2-0.2-0.5-0.2-0.8s0.1-0.6,0.2-0.9c0.1-0.4,0.5-0.7,0.9-0.8c0.5-0.1,0.9,0,1.3,0.2l3.6,1.6l0.4-1l-3.7-1.6
	c-0.3-0.2-0.7-0.3-1.1-0.3c-0.3,0-0.6,0-1,0.1c-0.3,0.1-0.6,0.3-0.8,0.5c-0.3,0.3-0.5,0.6-0.6,0.9c-0.1,0.2-0.2,0.5-0.2,0.7
	s0,0.5,0,0.7s0.1,0.4,0.2,0.6C7.9,48.9,8,49,8.1,49.2l0,0C8,49,7.8,49,7.7,48.9c-0.2-0.1-0.3-0.1-0.5-0.2l-0.4,1
	C7,49.8,7.2,49.9,7.5,50c0.2,0.1,0.5,0.2,0.8,0.3L12.8,52.2z M14.4,35.2l-0.6,0.9l1,0.6l0,0c-0.2,0-0.5,0-0.7,0.1s-0.4,0.1-0.6,0.3
	c-0.2,0.1-0.4,0.3-0.5,0.4c-0.2,0.2-0.3,0.3-0.4,0.5c-0.3,0.4-0.4,0.9-0.5,1.3c-0.1,0.4-0.1,0.9,0,1.3c0.1,0.4,0.3,0.8,0.6,1.2
	s0.7,0.7,1.1,1c0.4,0.2,0.8,0.4,1.3,0.5c0.4,0.1,0.9,0.1,1.3,0s0.8-0.3,1.2-0.6c0.4-0.3,0.7-0.7,1-1.1c0.2-0.4,0.4-0.8,0.4-1.3
	c0.1-0.5,0-0.9-0.3-1.4l0,0l0.7,0.4c0.3,0.2,0.6,0.4,0.8,0.6c0.2,0.2,0.4,0.5,0.5,0.8s0.1,0.6,0.1,1c-0.2,0.9-0.7,1.6-1.4,2.1
	c-0.4,0.2-0.8,0.4-1.3,0.5l0.4,1.1c0.6-0.1,1.1-0.4,1.6-0.8c0.5-0.4,0.8-0.8,1.2-1.3c0.6-0.8,0.8-1.8,0.6-2.7c-0.3-1-1-1.7-1.8-2.2
	L14.4,35.2z M13.4,41.1c-0.2-0.2-0.3-0.5-0.4-0.8c-0.1-0.3-0.1-0.6-0.1-0.9c0-0.3,0.2-0.6,0.3-0.9c0.2-0.3,0.4-0.5,0.6-0.7
	c0.2-0.2,0.5-0.3,0.8-0.4c0.3-0.1,0.6-0.1,0.9,0c0.3,0.1,0.6,0.2,0.9,0.4s0.5,0.4,0.7,0.6c0.4,0.5,0.6,1.1,0.5,1.7
	c0,0.3-0.2,0.7-0.4,0.9c-0.2,0.3-0.4,0.5-0.6,0.7s-0.5,0.3-0.8,0.4c-0.3,0.1-0.6,0.1-0.9,0c-0.3,0-0.6-0.2-0.9-0.3
	C13.9,41.6,13.6,41.4,13.4,41.1L13.4,41.1z M24.9,32.3l0.8-0.8l-0.8-0.8l0,0c0.4,0.1,0.9,0.1,1.4,0c0.5-0.2,1-0.4,1.4-0.8
	c0.3-0.3,0.6-0.7,0.7-1.1c0.2-0.4,0.2-0.8,0.2-1.2c0-0.4-0.1-0.9-0.3-1.3c-0.4-0.9-1.1-1.5-2-1.9C25.8,24.1,25.4,24,25,24
	s-0.9,0.1-1.3,0.3c-0.4,0.2-0.8,0.5-1.2,0.8c-0.3,0.3-0.6,0.7-0.7,1.1s-0.2,0.9-0.1,1.3l0,0L18.1,24l-0.8,0.8L24.9,32.3z M22.7,28.4
	c-0.3-0.6-0.3-1.2-0.1-1.8c0.2-0.6,0.7-1.1,1.3-1.4c0.6-0.2,1.2-0.2,1.8,0c0.6,0.3,1.1,0.8,1.4,1.3c0.3,0.6,0.3,1.2,0.1,1.8
	c-0.2,0.6-0.7,1.1-1.3,1.4c-0.6,0.2-1.2,0.2-1.8,0C23.5,29.5,23,29,22.7,28.4L22.7,28.4z M32.2,16.9l-0.9,0.7l1.6,5.2l0,0L28.1,20
	l-1,0.8l6.2,3.5l0.4,1.2c0.1,0.3,0.1,0.6,0.1,0.9s-0.2,0.6-0.4,0.7c-0.1,0.1-0.2,0.2-0.3,0.2c-0.1,0.1-0.2,0.1-0.3,0.1l0.5,0.8
	c0.2,0,0.3-0.1,0.5-0.2c0.1-0.1,0.3-0.2,0.4-0.3c0.2-0.2,0.4-0.4,0.6-0.6c0.1-0.2,0.2-0.4,0.2-0.7c0-0.2,0-0.5,0-0.7
	c0-0.3-0.1-0.5-0.2-0.8L32.2,16.9z M42.4,18.2l3.4-1.6c0.3-0.2,0.6-0.3,0.9-0.5c0.6-0.5,1.1-1.1,1.5-1.8c0.2-0.4,0.3-0.8,0.4-1.2
	c0.1-0.5,0.1-0.9,0-1.4s-0.2-1.1-0.5-1.6c-0.2-0.5-0.5-1-0.9-1.4c-0.3-0.4-0.7-0.7-1.1-0.9c-0.4-0.2-0.8-0.4-1.2-0.5
	s-0.8-0.1-1.2-0.1s-0.8,0.1-1.1,0.1c-0.3,0.1-0.7,0.2-1,0.3l-3.4,1.6L42.4,18.2z M39.7,9.7l2-1c0.5-0.2,1-0.4,1.5-0.5s1,0,1.4,0.1
	c0.5,0.1,0.9,0.4,1.3,0.7c0.4,0.4,0.8,0.9,1,1.5c0.3,0.5,0.4,1.1,0.5,1.7c0,0.5-0.1,1-0.3,1.4s-0.5,0.8-0.8,1.2
	c-0.4,0.4-0.8,0.7-1.3,0.9l-2,1L39.7,9.7z M57.2,10.5c-0.1,0.4-0.4,0.7-0.6,1c-0.3,0.3-0.7,0.5-1.1,0.6c-0.3,0.1-0.6,0.1-0.8,0.1
	c-0.3,0-0.5-0.1-0.8-0.3c-0.2-0.1-0.4-0.3-0.6-0.5c-0.2-0.2-0.3-0.5-0.4-0.7L58,9.2l-0.1-0.3c-0.1-0.5-0.3-0.9-0.6-1.3
	c-0.2-0.3-0.6-0.6-0.9-0.9c-0.3-0.2-0.7-0.3-1.1-0.4c-0.4,0-0.9,0-1.3,0.1c-0.6,0.1-1,0.3-1.3,0.6s-0.6,0.6-0.8,1
	c-0.2,0.4-0.3,0.8-0.4,1.2c0,0.5,0,1,0.1,1.4s0.3,0.9,0.6,1.2s0.6,0.6,0.9,0.9c0.4,0.2,0.8,0.4,1.2,0.4c0.5,0.1,1,0,1.4-0.1
	c0.5-0.1,1-0.4,1.5-0.7c0.4-0.4,0.7-0.8,0.9-1.4L57.2,10.5z M52.6,9.7c-0.2-1.1,0.5-2.1,1.5-2.4c0.5-0.2,1-0.1,1.5,0.1
	c0.4,0.2,0.8,0.7,0.9,1.1L52.6,9.7z M60.6,10.5c0.3,0.4,0.8,0.6,1.2,0.8c0.5,0.1,1,0.1,1.5,0c0.3-0.1,0.6-0.1,0.9-0.3
	c0.3-0.1,0.5-0.3,0.8-0.5c0.2-0.2,0.4-0.4,0.5-0.7s0.1-0.7,0.1-1S65.5,8.2,65.3,8c-0.1-0.2-0.3-0.4-0.5-0.5s-0.5-0.2-0.7-0.2
	c-0.3,0-0.6-0.1-0.8-0.1s-0.4,0-0.6,0c-0.2,0-0.4-0.1-0.6-0.1c-0.1,0-0.3-0.1-0.4-0.2c-0.1-0.1-0.2-0.2-0.2-0.3c0-0.1,0-0.3,0.1-0.4
	s0.1-0.2,0.3-0.3c0.1-0.1,0.2-0.2,0.4-0.2c0.1-0.1,0.3-0.1,0.4-0.1c0.3-0.1,0.6,0,0.9,0.1c0,0,0.2,0.1,0.4,0.3l0.8-0.7
	c-0.3-0.4-0.6-0.6-1.1-0.8c-0.4-0.1-0.9-0.1-1.3-0.1c-0.3,0-0.6,0.1-0.9,0.3C61.3,4.9,61,5,60.8,5.2s-0.4,0.4-0.5,0.7
	c-0.1,0.3-0.1,0.6-0.1,0.9s0.1,0.6,0.3,0.8c0.2,0.2,0.4,0.3,0.6,0.4c0.2,0.1,0.5,0.2,0.8,0.2s0.6,0.1,0.9,0.1c0.2,0,0.4,0,0.5,0
	c0.2,0,0.3,0.1,0.5,0.1c0.1,0.1,0.3,0.1,0.4,0.2c0.1,0.1,0.2,0.3,0.2,0.4c0,0.2,0,0.3,0,0.5c-0.1,0.1-0.2,0.3-0.3,0.4
	c-0.1,0.1-0.3,0.2-0.4,0.3c-0.2,0.1-0.3,0.1-0.5,0.1c-0.3,0.1-0.7,0-1-0.1s-0.6-0.3-0.8-0.5L60.6,10.5z M68.6,10.5l1.1-0.1l-0.5-6.5
	L68.1,4L68.6,10.5z M67.9,2c0.2,0.1,0.4,0.2,0.6,0.2s0.4-0.1,0.6-0.3c0.1-0.2,0.2-0.4,0.2-0.6S69.2,0.9,69,0.8
	c-0.3-0.3-0.8-0.3-1.1,0.1l0,0c-0.1,0.2-0.2,0.4-0.2,0.6C67.7,1.6,67.8,1.8,67.9,2z M79.7,3.9h-1.1V5l0,0c-0.1-0.2-0.2-0.4-0.4-0.6
	C78,4.2,77.9,4.1,77.6,4c-0.2-0.1-0.4-0.2-0.6-0.3s-0.4-0.1-0.7-0.1c-0.5,0-1,0-1.4,0.2c-0.4,0.1-0.8,0.4-1.1,0.6
	c-0.3,0.3-0.6,0.7-0.7,1.1c-0.2,0.5-0.3,0.9-0.3,1.4s0.1,0.9,0.2,1.4c0,0.4,0.2,0.7,0.5,1.1c0.3,0.3,0.7,0.6,1.1,0.7
	c0.4,0.2,0.9,0.3,1.4,0.3c0.4,0,0.9-0.1,1.3-0.3s0.8-0.5,1.1-0.9l0,0V10c0,0.3-0.1,0.7-0.1,1c-0.1,0.3-0.2,0.6-0.4,0.8
	c-0.2,0.3-0.5,0.4-0.8,0.6c-0.8,0.3-1.7,0.2-2.5-0.2c-0.4-0.2-0.8-0.5-1.1-0.9l-0.8,0.9c0.4,0.4,0.9,0.8,1.4,1
	c0.6,0.2,1.1,0.3,1.7,0.3c1,0.1,1.9-0.2,2.7-0.8c0.7-0.7,1-1.7,1-2.7L79.7,3.9z M74,6c0.1-0.3,0.3-0.5,0.5-0.8
	C74.7,5,75,4.9,75.3,4.8s0.6-0.2,1-0.2c0.3,0,0.6,0.1,0.9,0.2s0.5,0.3,0.7,0.5s0.4,0.5,0.4,0.8c0.1,0.3,0.2,0.6,0.1,1
	c0,0.3-0.1,0.6-0.2,0.9C78,8.6,77.5,9,77,9.2c-0.3,0.1-0.7,0.2-1,0.2s-0.6-0.1-0.9-0.2c-0.3-0.1-0.5-0.3-0.7-0.5S74,8.2,73.9,7.9
	S73.7,7.3,73.7,7C73.8,6.6,73.9,6.3,74,6z M82.5,10.8l1.1,0.2l0.6-3.1c0.1-0.3,0.2-0.7,0.3-1c0.1-0.3,0.3-0.5,0.5-0.7
	s0.4-0.3,0.7-0.4c0.3-0.1,0.6-0.1,0.9,0c0.4,0,0.8,0.3,1,0.7c0.2,0.4,0.2,0.9,0.1,1.3L87,11.7l1.1,0.2l0.7-4c0.1-0.4,0.1-0.7,0-1.1
	c0-0.3-0.1-0.6-0.3-0.9c-0.2-0.3-0.4-0.5-0.7-0.7c-0.3-0.2-0.7-0.3-1.1-0.4c-0.3,0-0.5-0.1-0.8,0c-0.2,0-0.5,0.1-0.7,0.2
	c0-0.1-0.2,0-0.3,0.2c-0.1,0.1-0.3,0.2-0.4,0.4l0,0c0-0.2,0.1-0.4,0.1-0.5s0-0.4,0.1-0.5l-1-0.2c0,0.2-0.1,0.4-0.1,0.7
	c0,0.3-0.1,0.5-0.1,0.8L82.5,10.8z M99.1,8.4c-0.7-0.3-1.6,0.1-1.9,0.8s0.1,1.6,0.8,1.9c0.7,0.3,1.6-0.1,1.9-0.8
	C100.3,9.6,99.9,8.7,99.1,8.4L99.1,8.4z"/>
</svg>
