<?xml version="1.0" encoding="utf-8"?>
<!-- Generator: Adobe Illustrator 24.1.0, SVG Export Plug-In . SVG Version: 6.00 Build 0)  -->
<svg version="1.1" xmlns="http://www.w3.org/2000/svg" xmlns:xlink="http://www.w3.org/1999/xlink" x="0px" y="0px"
	 viewBox="0 0 693.6 249.4" style="enable-background:new 0 0 693.6 249.4;" xml:space="preserve">
<style type="text/css">
	.st0{display:none;}
	.st1{display:inline;}
	.st2{fill:#FFFFFF;}
</style>
<g id="レイヤー_1" class="st0">
	<rect x="0.2" y="0.5" class="st1" width="693" height="249"/>
</g>
<g id="レイヤー_2">
	<path class="st2" d="M201.8,136c-2.3,8.7-3.4,17.4-0.5,26.1c3.5,10.7,13.7,15,25.8,11.3c8.4-2.6,14.9-7.9,21.3-13.7
		c1.7-1.5,3.9-4.3,6.2-2.6c2,1.6-0.6,4.9-2.1,6.6c-12.2,13.6-27,22.3-46,20.5c-13.4-1.3-21.7-10.2-23.1-23.7
		c-3.1-29.5,18.7-63.8,47-72.7c6.1-1.9,13.2-2.2,19.5-1.3c9.2,1.2,13.3,9.5,10.7,18.5c-1.9,6.4-6.2,11-11.3,14.9
		c-12.8,9.8-27.6,14.3-43.4,15.8C204.6,135.9,203.3,135.9,201.8,136z M203.8,129.7c4.1-0.5,7.3-0.7,10.4-1.4
		c11.6-2.7,22-7.5,28.4-18.2c3.1-5.1,2.8-11.3-0.2-14.3c-2.6-2.7-8.1-2.9-13.4,0.1C216.1,103.4,209.4,115.5,203.8,129.7z"/>
	<path class="st2" d="M542.5,45c-6.3,0-10.6-3.7-10.6-9.1c-0.1-6.2,4.7-10.6,11.5-10.6c6,0,10.5,4,10.4,9.4
		C553.7,40.8,549.2,44.9,542.5,45z"/>
	<path class="st2" d="M509.1,175.2c3.2-1.4,5.9-2.7,7.6-3.7c6.2-4.1,11.7-9.1,17.3-14c1.5-1.3,2-3.8,3.3-5.5
		c2.4-3.3,5.5-5.8,9.9-4.1c4.4,1.7,4.6,5.8,3.7,9.4c-1.1,4.3-3.2,8.2-4.9,12.7c5.7,8.5,18.4,11.4,27.5,5.7
		c5.8-3.6,9.2-12.1,6.8-19.2c-1.5-4.6-4.2-8.9-6.7-13.1c-2.9-4.9-6.5-9.4-9.3-14.4c-6.7-12.3-4-25.8,6.7-34.6
		c9.8-8.1,21.2-10.5,33.6-7.5c10.2,2.5,14.8,11.9,10.7,21.2c-0.7,1.6-2.2,4.1-3.5,5c-2.3,1.7-4.5,2.5-8.1,1c-2.1-0.9-3.3-5-3-7.4
		c0.5-4.1,5.6-11.1,4-12.2c-6.6-3.7-15.1-3.1-21.4,2c-6.5,5.3-8.9,12.4-6.6,20.3c1.3,4.5,4.1,8.6,6.5,12.7c2.7,4.3,6,8.3,8.6,12.6
		c7.4,12.3,5.3,24.7-5.4,34.2c-10,8.8-27.8,11.2-39.2,5.3c-6.5-3.4-10.7-8.7-12.7-16c-4.6,4-8.4,8.4-13.2,11.2
		c-5.6,3.3-11.8,6.3-18.1,7.6c-8.9,1.8-14-3.3-12.3-12.3c2.1-10.4,5.1-20.7,8.5-30.7c4.1-12,8.9-23.7,13.4-35.5c0.4-1.2,1-2.3,1.5-4
		c0.4-1.6,0-3.6-0.8-4.2c-1.2-0.8-3.6-0.8-5.1-0.2c-3.6,1.3-9,4.1-10.6,4.9c-1.2,0.7-1.7,0-1.3-1.2c0.8-2,1.7-3.3,2.7-4.6
		c5.1-6.7,13.7-9.8,22.7-9.8c6.4,0,10.2,4.2,8.4,10.3c-3.2,10.3-7.4,20.3-11,30.4c-4.3,12.1-8.6,24.1-12.6,36.3
		c-1.9,7.9-1.5,9.4-1.1,10.9C506.4,176.1,508.3,175.3,509.1,175.2z"/>
	<path class="st2" d="M443.8,129.8c3.8-6.5,7.1-13.4,11.5-19.4c5.1-6.9,10.8-13.6,17.2-19.3c3.5-3.1,9.6-5.5,13.9-5.3
		c4.4,0.1,7.2,2.1,7.2,6.5c-0.1,14.3-6.7,25.4-17.5,34.3c-1,0.8-3.7,1.6-4.7,0.6c-1.1-1.1-0.2-3.5,0.3-5c1.9-5.1,4-8.2,5.5-13.4
		c1.1-3.7,0.4-6.4-0.7-7.1c-1.2-0.7-3.5-0.6-7.6,2.9c-3.9,3.4-5.8,5-8.8,9.3c-10.6,15-17.8,31.7-23.3,49.2
		c-1.7,5.4-3.5,10.9-5.7,16.1c-0.8,2-2.6,4.7-4.4,5.1c-2.4,0.6-5.8-0.3-7.9-1.4c-1.8-1-1.8-4.6-1.1-6.5c2.9-8.3,6.3-16.4,9.5-24.6
		c5.3-13.5,8.8-27.4,8.2-42c-0.5-13.5-0.2-14-14.2-10.7c-4.7,1.7-2.1-4.4,0.2-6.5c4.5-4,9.4-6.5,15.4-6.6
		c7.7-0.1,13.6,5.2,12.9,13.2c-0.7,8.5-3.1,16.9-4.8,25.4c-0.4,1.7-0.7,2.7-1,4.1C443.9,129.1,443.8,129.8,443.8,129.8z"/>
	<path class="st2" d="M329.2,183.6c-4.1,13.9-8.1,27.3-12.2,40.8c-1.2,4.1,0.7,5.9,4.4,6.3c4.9,0.5,9.8,0.9,14.9,1.3
		c0,1.6,0,3.1,0,4.9c-16.3,0-32.7,0-50.7,0c0-2,2.9-4.1,4.1-4.2c10.2-0.9,13.1-8,15.6-16.5c9-29.6,18.7-58.9,27.6-88.5
		c2.4-8.2,3.3-17,3.6-25.5c0.2-6.7-4.7-9-10.9-5.9c-4.5,2.6-7.3,3.8-7.1,2.5c0.2-1.3,1-3.2,1.8-4.4c4.4-6.4,16.2-10.4,23.7-8.1
		c6.4,1.9,10.3,7.5,8.6,14.4c-2.5,10-5.8,19.9-8.8,29.8c-0.2,0.7-1.5,5.6-1.5,5.6c0.3-0.5,1-1.9,1.5-2.9
		c6.8-14.4,14.3-28.3,26.9-38.4c4.5-3.6,9.9-6.5,15.4-8.1c12.8-3.7,22.2,3.3,21.3,16.5c-2.5,35-19.9,60.7-50.5,77.6
		C348.7,185.1,339.3,185.6,329.2,183.6z M389.7,109.7c0-1.4,0.1-2.8,0-4.2c-0.6-7.3-5-9.7-11.5-6.2c-2.6,1.4-5,3.2-7.1,5.2
		c-11.2,10.8-19.3,23.8-26.1,37.5c-3.9,7.7-7.1,15.8-9.8,23.9c-2.6,8,0.6,11.4,8.9,11c8.8-0.4,15.6-4.9,21.3-11
		C380.3,150.2,387.9,131.2,389.7,109.7z"/>
	<path class="st2" d="M290.6,120.7c-6.3,0-10.6-3.7-10.6-9.1c-0.1-6.2,4.7-10.6,11.5-10.6c6,0,10.5,4,10.4,9.4
		C301.8,116.6,297.3,120.7,290.6,120.7z"/>
	<path class="st2" d="M281.8,166.7c-6.3,0-10.6-3.7-10.6-9.1c-0.1-6.2,4.7-10.6,11.5-10.6c6,0,10.5,4,10.4,9.4
		C293,162.6,288.5,166.7,281.8,166.7z"/>
	<path class="st2" d="M693.1,104.3c-5.7,16.9-25.3,25.1-43.3,29.7c-4.3,1.1-8.9,1.1-13.3,2c-1.3,0.3-3.2,1.3-3.5,3.5
		c-0.6,6.6-1.7,12.4-0.7,18.8c2,13.5,13.2,19.3,26.9,15.1c8.2-2.6,14.6-7.8,20.9-13.4c1.7-1.5,5.5-4.5,7.1-2.8
		c1.5,1.6-1.4,5.1-3,6.9c-12,13.4-26.5,22-45.1,20.4c-13.9-1.1-21.8-9.4-23.8-23.1c-4.5-31.4,22.2-69.3,53.4-75.2
		c3.6-0.7,7.4-0.6,11.1-0.2c6.8,0.6,11.7,5.3,13.5,11C694.2,100.2,693.4,103.1,693.1,104.3z M635.6,129.8c4.3-0.6,7.3-0.8,10.3-1.4
		c11.4-2.6,21.7-7.4,28.2-17.7c3.3-5.2,3.1-11.6,0.2-14.7c-2.7-2.9-8.7-2.9-14.2,0.4C647.7,103.9,641.1,115.7,635.6,129.8z"/>
	<path class="st2" d="M104,177.5c0,1.2,0,2.4,0,3.7c-17.7,0-35.3,0-53.1,0l0-3.3c0,0,1.8-0.1,3-0.3c8.8-1.9,13.6-5,16.5-13.6
		C85,120.4,98.7,81.4,113.9,38c1.4-4.2,2.2-7.3,3.3-7.8c2-1,13.3-5.1,19.6-7.3c-0.8,2.6-1.2,4.1-1.7,5.6
		c-15.4,45.5-30.8,90.9-46.2,136.4c-0.4,1.2-0.9,2.3-1.2,3.5c-1.2,4.7-0.2,6.6,4.7,7.7C95.9,176.8,99.7,177,104,177.5z"/>
	<path class="st2" d="M156.2,11.3c16.3,4.3,33.6,16.8,30.9,42.1c-1.9,18-11,31.9-24.3,43.4c-8.4,7.2-17.9,12.7-28.2,16.7
		c-0.8,0.3-1.6,0.7-3.4,1.6c4.7,12.5,8.9,25.1,14.1,37.2c8.7,20.2,18.9,39.7,33.7,56.2c4.6,5.1,9.9,9.8,15.6,13.8
		c13.2,9.3,27,8.4,40.6,0.8c2.6-1.4,4.7-3.5,7.3-5c1.5-0.9,4.2-2.6,5.1-1.7c0.9,0.8-0.7,4-1.8,5.3c-9.3,11.7-22,17.1-36.4,19.2
		c-18.6,2.7-32.6-5.7-44.7-18.7c-11.7-12.6-20.2-27.3-27.5-42.8c-9.4-20.1-17-40.7-21.4-62.5c-0.7-3.2-0.2-5.5,3.6-5.9
		c19.4-2.3,31.7-14.1,40.5-30.4c5.3-9.9,7.3-20.7,7-31.8c-0.4-16.8-10.5-29.3-28.4-30.5c-45.1-3.1-84.8,9.4-114.8,45.1
		C17,71.3,13,80.7,11.7,91.1c-0.3,2.6-0.6,5.3-0.4,7.9c1.2,19,15.2,22.1,28,16c9.8-4.6,14-13,14-23.7c0-1.5-0.1-4.9,2.5-4.8
		c2.5,0.1,2.9,2.7,3,4.2c0.4,4,0.7,8.4-0.5,12.2c-5.2,16.2-27.1,26.8-43.2,21.3c-8.7-2.9-14.4-10.5-14.9-19.9
		C-1,84.2,7.8,68.1,21.1,54c18-19.1,40.4-31.1,65.4-37.9c13-3.5,19.5-4.1,32.9-6.3c5.1-0.8,7.7-0.8,14-0.7
		C139.8,8.6,151.7,10.1,156.2,11.3z"/>
</g>
</svg>
